<svg xmlns="http://www.w3.org/2000/svg" version="1.1" xmlns:xlink="http://www.w3.org/1999/xlink" xmlns:svgjs="http://svgjs.dev/svgjs" width="1500" height="1500" viewBox="0 0 1500 1500"><rect width="1500" height="1500" fill="#000000"></rect><g transform="matrix(0.6666666666666666,0,0,0.6666666666666666,249.39393939393938,600.685094238848)"><svg viewBox="0 0 396 118" data-background-color="#ffffff" preserveAspectRatio="xMidYMid meet" height="446" width="1500" xmlns="http://www.w3.org/2000/svg" xmlns:xlink="http://www.w3.org/1999/xlink"><g id="tight-bounds" transform="matrix(1,0,0,1,0.2400000000000091,0.2572608065558768)"><svg viewBox="0 0 395.52 117.48547838688823" height="117.48547838688823" width="395.52"><g><svg viewBox="0 0 588.1908624650578 174.7165373672727" height="117.48547838688823" width="395.52"><g transform="matrix(1,0,0,1,192.67086246505784,49.33169017123966)"><svg viewBox="0 0 395.5199999999999 76.05315702479339" height="76.05315702479339" width="395.5199999999999"><g id="textblocktransform"><svg viewBox="0 0 395.5199999999999 76.05315702479339" height="76.05315702479339" width="395.5199999999999" id="textblock"><g><svg viewBox="0 0 395.5199999999999 76.05315702479339" height="76.05315702479339" width="395.5199999999999"><g transform="matrix(1,0,0,1,0,0)"><svg width="395.5199999999999" viewBox="3.55 -34.3 181.48999999999998 34.9" height="76.05315702479339" data-palette-color="#2257bf"><path d="M7.4 0L3.55-34.3 8.35-34.3 11-10.1Q11.15-8.95 11.35-4.85L11.35-4.85 11.6-4.85Q13.25-9.45 13.55-10.1L13.55-10.1 23.1-34.3 30.1-34.3 31.35-10.1Q31.45-8.55 31.45-4.85L31.45-4.85 31.7-4.85 34-10.1 44.9-34.3 49.65-34.3 33.7 0 27.15 0 26-24.05Q25.9-26.15 25.85-29.65L25.85-29.65 25.6-29.65Q24.3-25.85 23.6-24.05L23.6-24.05 13.95 0 7.4 0ZM54.65 0.6Q50.8 0.6 48.6-1.83 46.4-4.25 46.4-8.95L46.4-8.95Q46.4-14.3 48.05-18.38 49.7-22.45 52.57-24.68 55.45-26.9 59-26.9L59-26.9Q61.75-26.9 63.45-26.05 65.15-25.2 66.1-23.3L66.1-23.3 66.4-23.3 67.95-26.3 71.3-26.3 70.05-19.65Q67.35-5 67.35-4.4L67.35-4.4Q67.35-3.05 68.85-3.05L68.85-3.05 70.85-3.05 70.35-0.2Q69.85 0.1 68.97 0.35 68.1 0.6 67.05 0.6L67.05 0.6Q63.4 0.6 63.4-3.15L63.4-3.15Q63.4-3.8 63.45-4.15L63.45-4.15 63.2-4.15Q61.85-1.85 59.55-0.63 57.25 0.6 54.65 0.6L54.65 0.6ZM55.75-3.05Q58.9-3.05 60.97-5.3 63.05-7.55 64-10.78 64.95-14 64.95-17.05L64.95-17.05Q64.95-20.15 63.67-21.7 62.4-23.25 59.6-23.25L59.6-23.25Q56.85-23.25 54.9-21.35 52.95-19.45 51.97-16.25 51-13.05 51-9.2L51-9.2Q51-3.05 55.75-3.05L55.75-3.05ZM79.9 0.55Q77.4 0.55 76.3-0.6 75.2-1.75 75.2-3.6L75.2-3.6Q75.2-4.4 75.65-6.85L75.65-6.85 78.4-22.65 75.2-22.65 75.85-26.3 79.05-26.3 81.35-33.6 84.75-33.6 83.45-26.3 87.9-26.3 87.25-22.65 82.8-22.65 79.75-5.4Q79.7-5.15 79.7-4.75L79.7-4.75Q79.7-3.05 81.35-3.05L81.35-3.05 83.8-3.05 83.3-0.15Q82.65 0.15 81.67 0.35 80.7 0.55 79.9 0.55L79.9 0.55ZM99.69 0.6Q93.84 0.6 90.97-1.95 88.09-4.5 88.09-9.8L88.09-9.8Q88.09-14.65 89.59-18.53 91.09-22.4 94.29-24.65 97.49-26.9 102.29-26.9L102.29-26.9Q107.29-26.9 109.94-24.6 112.59-22.3 112.59-17.85L112.59-17.85Q112.59-16.3 112.19-14.15L112.19-14.15 111.79-11.95 92.74-11.95Q92.59-11.25 92.59-10.05L92.59-10.05Q92.59-6.5 94.32-4.78 96.04-3.05 99.59-3.05L99.59-3.05Q102.44-3.05 104.47-4.5 106.49-5.95 106.99-8.95L106.99-8.95 111.29-8.95Q110.54-4.35 107.34-1.88 104.14 0.6 99.69 0.6L99.69 0.6ZM93.39-15.6L107.94-15.6Q108.14-16.3 108.14-17.55L108.14-17.55Q108.14-23.25 102.14-23.25L102.14-23.25Q98.74-23.25 96.52-21.28 94.29-19.3 93.39-15.6L93.39-15.6ZM115.49 0L120.14-26.3 123.49-26.3 123.29-22.35 123.59-22.35Q126.19-26.9 130.59-26.9L130.59-26.9Q131.94-26.9 132.89-26.5L132.89-26.5 132.14-22.25 130.29-22.25Q127.49-22.25 125.34-20.5 123.19-18.75 122.54-15.05L122.54-15.05 119.89 0 115.49 0ZM143.29 0.6Q138.24 0.6 135.41-2.15 132.59-4.9 132.59-9.8L132.59-9.8Q132.59-11.1 132.84-13.45L132.84-13.45Q133.84-20.25 137.24-23.58 140.64-26.9 146.49-26.9L146.49-26.9Q151.59-26.9 154.41-24.2 157.24-21.5 157.24-16.65L157.24-16.65Q157.24-15.85 156.94-12.85L156.94-12.85Q155.94-6.05 152.54-2.73 149.14 0.6 143.29 0.6L143.29 0.6ZM143.49-3.1Q147.44-3.1 149.59-5.55 151.74-8 152.54-13.45L152.54-13.45Q152.84-15.55 152.84-17.15L152.84-17.15Q152.74-20.15 151.11-21.7 149.49-23.25 146.29-23.25L146.29-23.25Q142.34-23.25 140.19-20.78 138.04-18.3 137.24-12.85L137.24-12.85Q136.99-11.1 136.99-9.15L136.99-9.15Q137.09-6.2 138.71-4.65 140.34-3.1 143.49-3.1L143.49-3.1ZM171.09 0.6Q166.04 0.6 163.21-2.15 160.39-4.9 160.39-9.8L160.39-9.8Q160.39-11.1 160.64-13.45L160.64-13.45Q161.64-20.25 165.04-23.58 168.44-26.9 174.29-26.9L174.29-26.9Q179.39-26.9 182.21-24.2 185.04-21.5 185.04-16.65L185.04-16.65Q185.04-15.85 184.74-12.85L184.74-12.85Q183.74-6.05 180.34-2.73 176.94 0.6 171.09 0.6L171.09 0.6ZM171.29-3.1Q175.24-3.1 177.39-5.55 179.54-8 180.34-13.45L180.34-13.45Q180.64-15.55 180.64-17.15L180.64-17.15Q180.54-20.15 178.91-21.7 177.29-23.25 174.09-23.25L174.09-23.25Q170.14-23.25 167.99-20.78 165.84-18.3 165.04-12.85L165.04-12.85Q164.79-11.1 164.79-9.15L164.79-9.15Q164.89-6.2 166.51-4.65 168.14-3.1 171.29-3.1L171.29-3.1Z" opacity="1" transform="matrix(1,0,0,1,0,0)" fill="#ffffff" class="wordmark-text-0" data-fill-palette-color="primary" id="text-0"></path></svg></g></svg></g></svg></g></svg></g><g><svg viewBox="0 0 174.7165373672727 174.7165373672727" height="174.7165373672727" width="174.7165373672727"><g><svg></svg></g><g id="icon-0"><svg viewBox="0 0 174.7165373672727 174.7165373672727" height="174.7165373672727" width="174.7165373672727"><g><rect width="158.86262934690907" height="158.86262934690907" x="7.926954010181817" y="7.926954010181817" fill="#ffffff" data-fill-palette-color="accent"></rect><rect width="158.86262934690907" height="158.86262934690907" x="15.853908020363633" y="0" fill="#ffffff" opacity="0.5" data-fill-palette-color="accent"></rect></g><g transform="matrix(1,0,0,1,53.97863674393161,22.648440029090906)"><svg viewBox="0 0 66.75926387940949 129.4196573090909" height="129.4196573090909" width="66.75926387940949"><g><svg xmlns="http://www.w3.org/2000/svg" xmlns:xlink="http://www.w3.org/1999/xlink" version="1.1" x="0" y="0" viewBox="24.399 1.933 49.39951007138421 95.76599999999999" enable-background="new 0 0 100 100" xml:space="preserve" height="129.4196573090909" width="66.75926387940949" class="icon-dxe-0" data-fill-palette-color="quaternary" id="dxe-0"><path d="M67.927 17.404C76.566 90.456 74.835 97.699 68.147 97.699H45.259C37.548 97.699 36.764 91.704 43.768 17.404H45.259C41.115 90.456 42.324 90.456 43.792 90.456H68.855C70.018 90.456 71.237 90.456 66.476 17.404z" fill="#000000" data-fill-palette-color="quaternary"></path><polygon points="67.768,89.812 65.838,90.21 42.016,4.535 24.913,9.358 24.399,7.14 43.303,1.933 " fill="#000000" data-fill-palette-color="quaternary"></polygon></svg></g></svg></g></svg></g></svg></g></svg></g><defs></defs></svg><rect width="395.52" height="117.48547838688823" fill="none" stroke="none" visibility="hidden"></rect></g></svg></g></svg>